nColumns=28
nRows=26
DataType=double
version=3
OpenSimVersion=4.1
endheader
time	ground_force_1_vx	ground_force_1_vy	ground_force_1_vz	ground_force_1_px	ground_force_1_py	ground_force_1_pz	ground_force_1_mx	ground_force_1_my	ground_force_1_mz	ground_force_2_vx	ground_force_2_vy	ground_force_2_vz	ground_force_2_px	ground_force_2_py	ground_force_2_pz	ground_force_2_mx	ground_force_2_my	ground_force_2_mz	ground_force_3_vx	ground_force_3_vy	ground_force_3_vz	ground_force_3_px	ground_force_3_py	ground_force_3_pz	ground_force_3_mx	ground_force_3_my	ground_force_3_mz
3.2	3.81257	453.922	-22.5825	-0.257308	0.006	-0.408264	0	-0.592558	0	-2.38649	198.802	36.4521	-0.231655	0.006	-0.791079	0	0.96723	0	0	0	0	0	0	0	0	0	0
3.21	3.43016	456.233	-22.838	-0.256495	0.006	-0.407942	0	-0.53605	0	-2.38518	196.49	35.5318	-0.231439	0.006	-0.790825	0	0.958555	0	0	0	0	0	0	0	0	0	0
3.22	3.111	458.92	-23.1903	-0.255655	0.006	-0.407591	0	-0.482058	0	-2.33751	193.603	34.4915	-0.231133	0.006	-0.790551	0	0.95167	0	0	0	0	0	0	0	0	0	0
3.23	2.879	461.884	-23.624	-0.254827	0.006	-0.407223	0	-0.431026	0	-2.24058	190.218	33.3603	-0.230736	0.006	-0.790262	0	0.946352	0	0	0	0	0	0	0	0	0	0
3.24	2.75242	465.015	-24.1204	-0.254044	0.006	-0.406848	0	-0.383375	0	-2.09562	186.427	32.168	-0.230245	0.006	-0.789962	0	0.942141	0	0	0	0	0	0	0	0	0	0
3.25	2.74311	468.193	-24.6578	-0.253337	0.006	-0.406478	0	-0.3394	0	-1.90825	182.333	30.9439	-0.229662	0.006	-0.789657	0	0.938386	0	0	0	0	0	0	0	0	0	0
3.26	2.85638	471.3	-25.2124	-0.252728	0.006	-0.406124	0	-0.299241	0	-1.68767	178.041	29.7151	-0.228993	0.006	-0.78935	0	0.934442	0	0	0	0	0	0	0	0	0	0
3.27	3.09077	474.218	-25.7598	-0.252234	0.006	-0.405794	0	-0.262939	0	-1.44583	173.654	28.5044	-0.228245	0.006	-0.789045	0	0.929678	0	0	0	0	0	0	0	0	0	0
3.28	3.43765	476.837	-26.2772	-0.251867	0.006	-0.405497	0	-0.230473	0	-1.19658	169.265	27.3295	-0.227431	0.006	-0.788744	0	0.92349	0	0	0	0	0	0	0	0	0	0
3.29	3.88122	479.055	-26.7451	-0.251629	0.006	-0.405239	0	-0.201775	0	-0.954393	164.951	26.2021	-0.226567	0.006	-0.788446	0	0.915427	0	0	0	0	0	0	0	0	0	0
3.3	4.39933	480.783	-27.1488	-0.251521	0.006	-0.405024	0	-0.176476	0	-0.733208	160.772	25.1272	-0.22567	0.006	-0.788145	0	0.905207	0	0	0	0	0	0	0	0	0	0
3.31	4.9655	481.944	-27.4792	-0.251535	0.006	-0.404854	0	-0.153825	0	-0.545374	156.767	24.1046	-0.224753	0.006	-0.787836	0	0.892711	0	0	0	0	0	0	0	0	0	0
3.32	5.55268	482.475	-27.7335	-0.251661	0.006	-0.404731	0	-0.132893	0	-0.401173	152.958	23.1308	-0.22383	0.006	-0.78751	0	0.87791	0	0	0	0	0	0	0	0	0	0
3.33	6.1361	482.328	-27.9137	-0.251883	0.006	-0.404653	0	-0.112782	0	-0.308524	149.353	22.2006	-0.222909	0.006	-0.787162	0	0.860806	0	0	0	0	0	0	0	0	0	0
3.34	6.69323	481.458	-28.0252	-0.252183	0.006	-0.404616	0	-0.092814	0	-0.272517	145.948	21.3089	-0.221995	0.006	-0.786788	0	0.841485	0	0	0	0	0	0	0	0	0	0
3.35	7.20345	479.813	-28.0725	-0.252542	0.006	-0.404619	0	-0.072728	0	-0.294765	142.738	20.453	-0.221087	0.006	-0.786385	0	0.820109	0	0	0	0	0	0	0	0	0	0
3.36	7.64869	477.337	-28.0558	-0.25294	0.006	-0.404656	0	-0.05267	0	-0.372462	139.717	19.6344	-0.220183	0.006	-0.785957	0	0.796874	0	0	0	0	0	0	0	0	0	0
3.37	8.01467	473.981	-27.9691	-0.253356	0.006	-0.404724	0	-0.033152	0	-0.498274	136.886	18.8597	-0.219283	0.006	-0.78551	0	0.77193	0	0	0	0	0	0	0	0	0	0
3.38	8.2914	469.716	-27.8021	-0.253772	0.006	-0.404819	0	-0.015062	0	-0.661517	134.248	18.1413	-0.21839	0.006	-0.785052	0	0.745472	0	0	0	0	0	0	0	0	0	0
3.39	8.47218	464.541	-27.5432	-0.254171	0.006	-0.404937	0	0.000313	0	-0.849803	131.807	17.4959	-0.21751	0.006	-0.784595	0	0.71769	0	0	0	0	0	0	0	0	0	0
3.4	8.55262	458.483	-27.185	-0.254538	0.006	-0.405076	0	0.011442	0	-1.05132	129.574	16.9423	-0.216651	0.006	-0.784152	0	0.688858	0	0	0	0	0	0	0	0	0	0
3.41	8.52878	451.602	-26.7277	-0.254857	0.006	-0.405228	0	0.016858	0	-1.25752	127.56	16.4999	-0.215818	0.006	-0.783733	0	0.65919	0	0	0	0	0	0	0	0	0	0
3.42	8.39607	443.987	-26.1807	-0.255115	0.006	-0.405389	0	0.015357	0	-1.46361	125.778	16.1869	-0.215015	0.006	-0.783354	0	0.628747	0	0	0	0	0	0	0	0	0	0
3.43	8.14989	435.77	-25.5618	-0.255299	0.006	-0.405551	0	0.006094	0	-1.66688	124.24	16.0172	-0.214242	0.006	-0.783027	0	0.597566	0	0	0	0	0	0	0	0	0	0
3.44	7.78634	427.125	-24.8951	-0.255397	0.006	-0.405707	0	-0.011345	0	-1.86422	122.948	15.9993	-0.213493	0.006	-0.782762	0	0.565878	0	0	0	0	0	0	0	0	0	0
3.45	7.305	418.273	-24.2051	-0.2554	0.006	-0.405851	0	-0.036868	0	-2.05053	121.897	16.1341	-0.212762	0.006	-0.782567	0	0.534294	0	0	0	0	0	0	0	0	0	0
